<mxfile host="app.diagrams.net" modified="2022-01-07T09:49:54.915Z" agent="5.0 (Macintosh)" etag="holFKuPzooSCvJXaS517" version="16.2.2" type="github">
  <diagram name="Page-1" id="bd83a815-5ea8-2e97-e5ec-87c9f400f2fa">
    <mxGraphModel dx="1186" dy="651" grid="1" gridSize="10" guides="1" tooltips="1" connect="1" arrows="1" fold="1" page="1" pageScale="1.5" pageWidth="1169" pageHeight="826" background="none" math="0" shadow="0">
      <root>
        <mxCell id="0" style=";html=1;" />
        <mxCell id="1" style=";html=1;" parent="0" />
        <mxCell id="jgzTNgnxc2cYcyluThHS-317" value="" style="shape=table;startSize=0;container=1;collapsible=0;childLayout=tableLayout;" parent="1" vertex="1">
          <mxGeometry x="110" y="140" width="1426" height="367" as="geometry" />
        </mxCell>
        <mxCell id="jgzTNgnxc2cYcyluThHS-318" value="" style="shape=partialRectangle;collapsible=0;dropTarget=0;pointerEvents=0;fillColor=none;top=0;left=0;bottom=0;right=0;points=[[0,0.5],[1,0.5]];portConstraint=eastwest;" parent="jgzTNgnxc2cYcyluThHS-317" vertex="1">
          <mxGeometry width="1426" height="50" as="geometry" />
        </mxCell>
        <mxCell id="jgzTNgnxc2cYcyluThHS-319" value="Item number" style="shape=partialRectangle;html=1;whiteSpace=wrap;connectable=0;overflow=hidden;fillColor=none;top=0;left=0;bottom=0;right=0;" parent="jgzTNgnxc2cYcyluThHS-318" vertex="1">
          <mxGeometry width="104" height="50" as="geometry" />
        </mxCell>
        <mxCell id="jgzTNgnxc2cYcyluThHS-320" value="Item name" style="shape=partialRectangle;html=1;whiteSpace=wrap;connectable=0;overflow=hidden;fillColor=none;top=0;left=0;bottom=0;right=0;" parent="jgzTNgnxc2cYcyluThHS-318" vertex="1">
          <mxGeometry x="104" width="107" height="50" as="geometry" />
        </mxCell>
        <mxCell id="jgzTNgnxc2cYcyluThHS-321" value="Manufacturer part number" style="shape=partialRectangle;html=1;whiteSpace=wrap;connectable=0;overflow=hidden;fillColor=none;top=0;left=0;bottom=0;right=0;" parent="jgzTNgnxc2cYcyluThHS-318" vertex="1">
          <mxGeometry x="211" width="104" height="50" as="geometry" />
        </mxCell>
        <mxCell id="S6O9Z_PtVyLRoyKbZGDE-13" value="Digi-Key part number" style="shape=partialRectangle;html=1;whiteSpace=wrap;connectable=0;overflow=hidden;fillColor=none;top=0;left=0;bottom=0;right=0;" parent="jgzTNgnxc2cYcyluThHS-318" vertex="1">
          <mxGeometry x="315" width="106" height="50" as="geometry" />
        </mxCell>
        <mxCell id="jgzTNgnxc2cYcyluThHS-322" value="Description" style="shape=partialRectangle;html=1;whiteSpace=wrap;connectable=0;overflow=hidden;fillColor=none;top=0;left=0;bottom=0;right=0;" parent="jgzTNgnxc2cYcyluThHS-318" vertex="1">
          <mxGeometry x="421" width="106" height="50" as="geometry" />
        </mxCell>
        <mxCell id="S6O9Z_PtVyLRoyKbZGDE-20" value="Mnaufacturered part (link to manufacturing instruction) " style="shape=partialRectangle;html=1;whiteSpace=wrap;connectable=0;overflow=hidden;fillColor=none;top=0;left=0;bottom=0;right=0;" parent="jgzTNgnxc2cYcyluThHS-318" vertex="1">
          <mxGeometry x="527" width="175" height="50" as="geometry" />
        </mxCell>
        <mxCell id="jgzTNgnxc2cYcyluThHS-323" value="Purchased part (link to seller website)" style="shape=partialRectangle;html=1;whiteSpace=wrap;connectable=0;overflow=hidden;fillColor=none;top=0;left=0;bottom=0;right=0;" parent="jgzTNgnxc2cYcyluThHS-318" vertex="1">
          <mxGeometry x="702" width="194" height="50" as="geometry" />
        </mxCell>
        <mxCell id="jgzTNgnxc2cYcyluThHS-324" value="Quantity" style="shape=partialRectangle;html=1;whiteSpace=wrap;connectable=0;overflow=hidden;fillColor=none;top=0;left=0;bottom=0;right=0;" parent="jgzTNgnxc2cYcyluThHS-318" vertex="1">
          <mxGeometry x="896" width="70" height="50" as="geometry" />
        </mxCell>
        <mxCell id="jgzTNgnxc2cYcyluThHS-325" value="Unit price" style="shape=partialRectangle;html=1;whiteSpace=wrap;connectable=0;overflow=hidden;fillColor=none;top=0;left=0;bottom=0;right=0;" parent="jgzTNgnxc2cYcyluThHS-318" vertex="1">
          <mxGeometry x="966" width="80" height="50" as="geometry" />
        </mxCell>
        <mxCell id="jgzTNgnxc2cYcyluThHS-326" value="Extended price" style="shape=partialRectangle;html=1;whiteSpace=wrap;connectable=0;overflow=hidden;fillColor=none;top=0;left=0;bottom=0;right=0;" parent="jgzTNgnxc2cYcyluThHS-318" vertex="1">
          <mxGeometry x="1046" width="100" height="50" as="geometry" />
        </mxCell>
        <mxCell id="jgzTNgnxc2cYcyluThHS-327" value="Manufacturing standard lead time" style="shape=partialRectangle;html=1;whiteSpace=wrap;connectable=0;overflow=hidden;fillColor=none;top=0;left=0;bottom=0;right=0;" parent="jgzTNgnxc2cYcyluThHS-318" vertex="1">
          <mxGeometry x="1146" width="100" height="50" as="geometry" />
        </mxCell>
        <mxCell id="jgzTNgnxc2cYcyluThHS-328" value="Packaging" style="shape=partialRectangle;html=1;whiteSpace=wrap;connectable=0;overflow=hidden;fillColor=none;top=0;left=0;bottom=0;right=0;" parent="jgzTNgnxc2cYcyluThHS-318" vertex="1">
          <mxGeometry x="1246" width="100" height="50" as="geometry" />
        </mxCell>
        <mxCell id="jgzTNgnxc2cYcyluThHS-329" value="BOM note" style="shape=partialRectangle;html=1;whiteSpace=wrap;connectable=0;overflow=hidden;fillColor=none;top=0;left=0;bottom=0;right=0;" parent="jgzTNgnxc2cYcyluThHS-318" vertex="1">
          <mxGeometry x="1346" width="80" height="50" as="geometry" />
        </mxCell>
        <mxCell id="jgzTNgnxc2cYcyluThHS-419" style="shape=partialRectangle;collapsible=0;dropTarget=0;pointerEvents=0;fillColor=none;top=0;left=0;bottom=0;right=0;points=[[0,0.5],[1,0.5]];portConstraint=eastwest;" parent="jgzTNgnxc2cYcyluThHS-317" vertex="1">
          <mxGeometry y="50" width="1426" height="53" as="geometry" />
        </mxCell>
        <mxCell id="jgzTNgnxc2cYcyluThHS-420" value="1" style="shape=partialRectangle;html=1;whiteSpace=wrap;connectable=0;overflow=hidden;fillColor=none;top=0;left=0;bottom=0;right=0;" parent="jgzTNgnxc2cYcyluThHS-419" vertex="1">
          <mxGeometry width="104" height="53" as="geometry" />
        </mxCell>
        <mxCell id="jgzTNgnxc2cYcyluThHS-421" style="shape=partialRectangle;html=1;whiteSpace=wrap;connectable=0;overflow=hidden;fillColor=none;top=0;left=0;bottom=0;right=0;" parent="jgzTNgnxc2cYcyluThHS-419" vertex="1">
          <mxGeometry x="104" width="107" height="53" as="geometry" />
        </mxCell>
        <mxCell id="jgzTNgnxc2cYcyluThHS-422" style="shape=partialRectangle;html=1;whiteSpace=wrap;connectable=0;overflow=hidden;fillColor=none;top=0;left=0;bottom=0;right=0;" parent="jgzTNgnxc2cYcyluThHS-419" vertex="1">
          <mxGeometry x="211" width="104" height="53" as="geometry" />
        </mxCell>
        <mxCell id="S6O9Z_PtVyLRoyKbZGDE-14" style="shape=partialRectangle;html=1;whiteSpace=wrap;connectable=0;overflow=hidden;fillColor=none;top=0;left=0;bottom=0;right=0;" parent="jgzTNgnxc2cYcyluThHS-419" vertex="1">
          <mxGeometry x="315" width="106" height="53" as="geometry" />
        </mxCell>
        <mxCell id="jgzTNgnxc2cYcyluThHS-423" style="shape=partialRectangle;html=1;whiteSpace=wrap;connectable=0;overflow=hidden;fillColor=none;top=0;left=0;bottom=0;right=0;" parent="jgzTNgnxc2cYcyluThHS-419" vertex="1">
          <mxGeometry x="421" width="106" height="53" as="geometry" />
        </mxCell>
        <mxCell id="S6O9Z_PtVyLRoyKbZGDE-21" value="" style="shape=partialRectangle;html=1;whiteSpace=wrap;connectable=0;overflow=hidden;fillColor=none;top=0;left=0;bottom=0;right=0;" parent="jgzTNgnxc2cYcyluThHS-419" vertex="1">
          <mxGeometry x="527" width="175" height="53" as="geometry" />
        </mxCell>
        <mxCell id="jgzTNgnxc2cYcyluThHS-424" value="" style="shape=partialRectangle;html=1;whiteSpace=wrap;connectable=0;overflow=hidden;fillColor=none;top=0;left=0;bottom=0;right=0;" parent="jgzTNgnxc2cYcyluThHS-419" vertex="1">
          <mxGeometry x="702" width="194" height="53" as="geometry" />
        </mxCell>
        <mxCell id="jgzTNgnxc2cYcyluThHS-425" style="shape=partialRectangle;html=1;whiteSpace=wrap;connectable=0;overflow=hidden;fillColor=none;top=0;left=0;bottom=0;right=0;" parent="jgzTNgnxc2cYcyluThHS-419" vertex="1">
          <mxGeometry x="896" width="70" height="53" as="geometry" />
        </mxCell>
        <mxCell id="jgzTNgnxc2cYcyluThHS-426" style="shape=partialRectangle;html=1;whiteSpace=wrap;connectable=0;overflow=hidden;fillColor=none;top=0;left=0;bottom=0;right=0;" parent="jgzTNgnxc2cYcyluThHS-419" vertex="1">
          <mxGeometry x="966" width="80" height="53" as="geometry" />
        </mxCell>
        <mxCell id="jgzTNgnxc2cYcyluThHS-427" style="shape=partialRectangle;html=1;whiteSpace=wrap;connectable=0;overflow=hidden;fillColor=none;top=0;left=0;bottom=0;right=0;" parent="jgzTNgnxc2cYcyluThHS-419" vertex="1">
          <mxGeometry x="1046" width="100" height="53" as="geometry" />
        </mxCell>
        <mxCell id="jgzTNgnxc2cYcyluThHS-428" style="shape=partialRectangle;html=1;whiteSpace=wrap;connectable=0;overflow=hidden;fillColor=none;top=0;left=0;bottom=0;right=0;" parent="jgzTNgnxc2cYcyluThHS-419" vertex="1">
          <mxGeometry x="1146" width="100" height="53" as="geometry" />
        </mxCell>
        <mxCell id="jgzTNgnxc2cYcyluThHS-429" style="shape=partialRectangle;html=1;whiteSpace=wrap;connectable=0;overflow=hidden;fillColor=none;top=0;left=0;bottom=0;right=0;" parent="jgzTNgnxc2cYcyluThHS-419" vertex="1">
          <mxGeometry x="1246" width="100" height="53" as="geometry" />
        </mxCell>
        <mxCell id="jgzTNgnxc2cYcyluThHS-430" style="shape=partialRectangle;html=1;whiteSpace=wrap;connectable=0;overflow=hidden;fillColor=none;top=0;left=0;bottom=0;right=0;" parent="jgzTNgnxc2cYcyluThHS-419" vertex="1">
          <mxGeometry x="1346" width="80" height="53" as="geometry" />
        </mxCell>
        <mxCell id="jgzTNgnxc2cYcyluThHS-407" style="shape=partialRectangle;collapsible=0;dropTarget=0;pointerEvents=0;fillColor=none;top=0;left=0;bottom=0;right=0;points=[[0,0.5],[1,0.5]];portConstraint=eastwest;" parent="jgzTNgnxc2cYcyluThHS-317" vertex="1">
          <mxGeometry y="103" width="1426" height="53" as="geometry" />
        </mxCell>
        <mxCell id="jgzTNgnxc2cYcyluThHS-408" value="2" style="shape=partialRectangle;html=1;whiteSpace=wrap;connectable=0;overflow=hidden;fillColor=none;top=0;left=0;bottom=0;right=0;" parent="jgzTNgnxc2cYcyluThHS-407" vertex="1">
          <mxGeometry width="104" height="53" as="geometry" />
        </mxCell>
        <mxCell id="jgzTNgnxc2cYcyluThHS-409" style="shape=partialRectangle;html=1;whiteSpace=wrap;connectable=0;overflow=hidden;fillColor=none;top=0;left=0;bottom=0;right=0;" parent="jgzTNgnxc2cYcyluThHS-407" vertex="1">
          <mxGeometry x="104" width="107" height="53" as="geometry" />
        </mxCell>
        <mxCell id="jgzTNgnxc2cYcyluThHS-410" style="shape=partialRectangle;html=1;whiteSpace=wrap;connectable=0;overflow=hidden;fillColor=none;top=0;left=0;bottom=0;right=0;" parent="jgzTNgnxc2cYcyluThHS-407" vertex="1">
          <mxGeometry x="211" width="104" height="53" as="geometry" />
        </mxCell>
        <mxCell id="S6O9Z_PtVyLRoyKbZGDE-15" style="shape=partialRectangle;html=1;whiteSpace=wrap;connectable=0;overflow=hidden;fillColor=none;top=0;left=0;bottom=0;right=0;" parent="jgzTNgnxc2cYcyluThHS-407" vertex="1">
          <mxGeometry x="315" width="106" height="53" as="geometry" />
        </mxCell>
        <mxCell id="jgzTNgnxc2cYcyluThHS-411" style="shape=partialRectangle;html=1;whiteSpace=wrap;connectable=0;overflow=hidden;fillColor=none;top=0;left=0;bottom=0;right=0;" parent="jgzTNgnxc2cYcyluThHS-407" vertex="1">
          <mxGeometry x="421" width="106" height="53" as="geometry" />
        </mxCell>
        <mxCell id="S6O9Z_PtVyLRoyKbZGDE-22" style="shape=partialRectangle;html=1;whiteSpace=wrap;connectable=0;overflow=hidden;fillColor=none;top=0;left=0;bottom=0;right=0;" parent="jgzTNgnxc2cYcyluThHS-407" vertex="1">
          <mxGeometry x="527" width="175" height="53" as="geometry" />
        </mxCell>
        <mxCell id="jgzTNgnxc2cYcyluThHS-412" value="" style="shape=partialRectangle;html=1;whiteSpace=wrap;connectable=0;overflow=hidden;fillColor=none;top=0;left=0;bottom=0;right=0;" parent="jgzTNgnxc2cYcyluThHS-407" vertex="1">
          <mxGeometry x="702" width="194" height="53" as="geometry" />
        </mxCell>
        <mxCell id="jgzTNgnxc2cYcyluThHS-413" style="shape=partialRectangle;html=1;whiteSpace=wrap;connectable=0;overflow=hidden;fillColor=none;top=0;left=0;bottom=0;right=0;" parent="jgzTNgnxc2cYcyluThHS-407" vertex="1">
          <mxGeometry x="896" width="70" height="53" as="geometry" />
        </mxCell>
        <mxCell id="jgzTNgnxc2cYcyluThHS-414" style="shape=partialRectangle;html=1;whiteSpace=wrap;connectable=0;overflow=hidden;fillColor=none;top=0;left=0;bottom=0;right=0;" parent="jgzTNgnxc2cYcyluThHS-407" vertex="1">
          <mxGeometry x="966" width="80" height="53" as="geometry" />
        </mxCell>
        <mxCell id="jgzTNgnxc2cYcyluThHS-415" style="shape=partialRectangle;html=1;whiteSpace=wrap;connectable=0;overflow=hidden;fillColor=none;top=0;left=0;bottom=0;right=0;" parent="jgzTNgnxc2cYcyluThHS-407" vertex="1">
          <mxGeometry x="1046" width="100" height="53" as="geometry" />
        </mxCell>
        <mxCell id="jgzTNgnxc2cYcyluThHS-416" style="shape=partialRectangle;html=1;whiteSpace=wrap;connectable=0;overflow=hidden;fillColor=none;top=0;left=0;bottom=0;right=0;" parent="jgzTNgnxc2cYcyluThHS-407" vertex="1">
          <mxGeometry x="1146" width="100" height="53" as="geometry" />
        </mxCell>
        <mxCell id="jgzTNgnxc2cYcyluThHS-417" style="shape=partialRectangle;html=1;whiteSpace=wrap;connectable=0;overflow=hidden;fillColor=none;top=0;left=0;bottom=0;right=0;" parent="jgzTNgnxc2cYcyluThHS-407" vertex="1">
          <mxGeometry x="1246" width="100" height="53" as="geometry" />
        </mxCell>
        <mxCell id="jgzTNgnxc2cYcyluThHS-418" style="shape=partialRectangle;html=1;whiteSpace=wrap;connectable=0;overflow=hidden;fillColor=none;top=0;left=0;bottom=0;right=0;" parent="jgzTNgnxc2cYcyluThHS-407" vertex="1">
          <mxGeometry x="1346" width="80" height="53" as="geometry" />
        </mxCell>
        <mxCell id="jgzTNgnxc2cYcyluThHS-330" value="" style="shape=partialRectangle;collapsible=0;dropTarget=0;pointerEvents=0;fillColor=none;top=0;left=0;bottom=0;right=0;points=[[0,0.5],[1,0.5]];portConstraint=eastwest;" parent="jgzTNgnxc2cYcyluThHS-317" vertex="1">
          <mxGeometry y="156" width="1426" height="52" as="geometry" />
        </mxCell>
        <mxCell id="jgzTNgnxc2cYcyluThHS-331" value="3" style="shape=partialRectangle;html=1;whiteSpace=wrap;connectable=0;overflow=hidden;fillColor=none;top=0;left=0;bottom=0;right=0;" parent="jgzTNgnxc2cYcyluThHS-330" vertex="1">
          <mxGeometry width="104" height="52" as="geometry" />
        </mxCell>
        <mxCell id="jgzTNgnxc2cYcyluThHS-332" value="" style="shape=partialRectangle;html=1;whiteSpace=wrap;connectable=0;overflow=hidden;fillColor=none;top=0;left=0;bottom=0;right=0;" parent="jgzTNgnxc2cYcyluThHS-330" vertex="1">
          <mxGeometry x="104" width="107" height="52" as="geometry" />
        </mxCell>
        <mxCell id="jgzTNgnxc2cYcyluThHS-333" value="" style="shape=partialRectangle;html=1;whiteSpace=wrap;connectable=0;overflow=hidden;fillColor=none;top=0;left=0;bottom=0;right=0;" parent="jgzTNgnxc2cYcyluThHS-330" vertex="1">
          <mxGeometry x="211" width="104" height="52" as="geometry" />
        </mxCell>
        <mxCell id="S6O9Z_PtVyLRoyKbZGDE-16" style="shape=partialRectangle;html=1;whiteSpace=wrap;connectable=0;overflow=hidden;fillColor=none;top=0;left=0;bottom=0;right=0;" parent="jgzTNgnxc2cYcyluThHS-330" vertex="1">
          <mxGeometry x="315" width="106" height="52" as="geometry" />
        </mxCell>
        <mxCell id="jgzTNgnxc2cYcyluThHS-334" value="" style="shape=partialRectangle;html=1;whiteSpace=wrap;connectable=0;overflow=hidden;fillColor=none;top=0;left=0;bottom=0;right=0;" parent="jgzTNgnxc2cYcyluThHS-330" vertex="1">
          <mxGeometry x="421" width="106" height="52" as="geometry" />
        </mxCell>
        <mxCell id="S6O9Z_PtVyLRoyKbZGDE-23" style="shape=partialRectangle;html=1;whiteSpace=wrap;connectable=0;overflow=hidden;fillColor=none;top=0;left=0;bottom=0;right=0;" parent="jgzTNgnxc2cYcyluThHS-330" vertex="1">
          <mxGeometry x="527" width="175" height="52" as="geometry" />
        </mxCell>
        <mxCell id="jgzTNgnxc2cYcyluThHS-335" value="" style="shape=partialRectangle;html=1;whiteSpace=wrap;connectable=0;overflow=hidden;fillColor=none;top=0;left=0;bottom=0;right=0;" parent="jgzTNgnxc2cYcyluThHS-330" vertex="1">
          <mxGeometry x="702" width="194" height="52" as="geometry" />
        </mxCell>
        <mxCell id="jgzTNgnxc2cYcyluThHS-336" value="" style="shape=partialRectangle;html=1;whiteSpace=wrap;connectable=0;overflow=hidden;fillColor=none;top=0;left=0;bottom=0;right=0;" parent="jgzTNgnxc2cYcyluThHS-330" vertex="1">
          <mxGeometry x="896" width="70" height="52" as="geometry" />
        </mxCell>
        <mxCell id="jgzTNgnxc2cYcyluThHS-337" value="" style="shape=partialRectangle;html=1;whiteSpace=wrap;connectable=0;overflow=hidden;fillColor=none;top=0;left=0;bottom=0;right=0;" parent="jgzTNgnxc2cYcyluThHS-330" vertex="1">
          <mxGeometry x="966" width="80" height="52" as="geometry" />
        </mxCell>
        <mxCell id="jgzTNgnxc2cYcyluThHS-338" value="" style="shape=partialRectangle;html=1;whiteSpace=wrap;connectable=0;overflow=hidden;fillColor=none;top=0;left=0;bottom=0;right=0;" parent="jgzTNgnxc2cYcyluThHS-330" vertex="1">
          <mxGeometry x="1046" width="100" height="52" as="geometry" />
        </mxCell>
        <mxCell id="jgzTNgnxc2cYcyluThHS-339" value="" style="shape=partialRectangle;html=1;whiteSpace=wrap;connectable=0;overflow=hidden;fillColor=none;top=0;left=0;bottom=0;right=0;" parent="jgzTNgnxc2cYcyluThHS-330" vertex="1">
          <mxGeometry x="1146" width="100" height="52" as="geometry" />
        </mxCell>
        <mxCell id="jgzTNgnxc2cYcyluThHS-340" value="" style="shape=partialRectangle;html=1;whiteSpace=wrap;connectable=0;overflow=hidden;fillColor=none;top=0;left=0;bottom=0;right=0;" parent="jgzTNgnxc2cYcyluThHS-330" vertex="1">
          <mxGeometry x="1246" width="100" height="52" as="geometry" />
        </mxCell>
        <mxCell id="jgzTNgnxc2cYcyluThHS-341" value="" style="shape=partialRectangle;html=1;whiteSpace=wrap;connectable=0;overflow=hidden;fillColor=none;top=0;left=0;bottom=0;right=0;" parent="jgzTNgnxc2cYcyluThHS-330" vertex="1">
          <mxGeometry x="1346" width="80" height="52" as="geometry" />
        </mxCell>
        <mxCell id="jgzTNgnxc2cYcyluThHS-342" value="" style="shape=partialRectangle;collapsible=0;dropTarget=0;pointerEvents=0;fillColor=none;top=0;left=0;bottom=0;right=0;points=[[0,0.5],[1,0.5]];portConstraint=eastwest;" parent="jgzTNgnxc2cYcyluThHS-317" vertex="1">
          <mxGeometry y="208" width="1426" height="53" as="geometry" />
        </mxCell>
        <mxCell id="jgzTNgnxc2cYcyluThHS-343" value="4" style="shape=partialRectangle;html=1;whiteSpace=wrap;connectable=0;overflow=hidden;fillColor=none;top=0;left=0;bottom=0;right=0;" parent="jgzTNgnxc2cYcyluThHS-342" vertex="1">
          <mxGeometry width="104" height="53" as="geometry" />
        </mxCell>
        <mxCell id="jgzTNgnxc2cYcyluThHS-344" value="" style="shape=partialRectangle;html=1;whiteSpace=wrap;connectable=0;overflow=hidden;fillColor=none;top=0;left=0;bottom=0;right=0;" parent="jgzTNgnxc2cYcyluThHS-342" vertex="1">
          <mxGeometry x="104" width="107" height="53" as="geometry" />
        </mxCell>
        <mxCell id="jgzTNgnxc2cYcyluThHS-345" value="" style="shape=partialRectangle;html=1;whiteSpace=wrap;connectable=0;overflow=hidden;fillColor=none;top=0;left=0;bottom=0;right=0;" parent="jgzTNgnxc2cYcyluThHS-342" vertex="1">
          <mxGeometry x="211" width="104" height="53" as="geometry" />
        </mxCell>
        <mxCell id="S6O9Z_PtVyLRoyKbZGDE-17" style="shape=partialRectangle;html=1;whiteSpace=wrap;connectable=0;overflow=hidden;fillColor=none;top=0;left=0;bottom=0;right=0;" parent="jgzTNgnxc2cYcyluThHS-342" vertex="1">
          <mxGeometry x="315" width="106" height="53" as="geometry" />
        </mxCell>
        <mxCell id="jgzTNgnxc2cYcyluThHS-346" value="" style="shape=partialRectangle;html=1;whiteSpace=wrap;connectable=0;overflow=hidden;fillColor=none;top=0;left=0;bottom=0;right=0;" parent="jgzTNgnxc2cYcyluThHS-342" vertex="1">
          <mxGeometry x="421" width="106" height="53" as="geometry" />
        </mxCell>
        <mxCell id="S6O9Z_PtVyLRoyKbZGDE-24" style="shape=partialRectangle;html=1;whiteSpace=wrap;connectable=0;overflow=hidden;fillColor=none;top=0;left=0;bottom=0;right=0;" parent="jgzTNgnxc2cYcyluThHS-342" vertex="1">
          <mxGeometry x="527" width="175" height="53" as="geometry" />
        </mxCell>
        <mxCell id="jgzTNgnxc2cYcyluThHS-347" value="" style="shape=partialRectangle;html=1;whiteSpace=wrap;connectable=0;overflow=hidden;fillColor=none;top=0;left=0;bottom=0;right=0;" parent="jgzTNgnxc2cYcyluThHS-342" vertex="1">
          <mxGeometry x="702" width="194" height="53" as="geometry" />
        </mxCell>
        <mxCell id="jgzTNgnxc2cYcyluThHS-348" value="" style="shape=partialRectangle;html=1;whiteSpace=wrap;connectable=0;overflow=hidden;fillColor=none;top=0;left=0;bottom=0;right=0;" parent="jgzTNgnxc2cYcyluThHS-342" vertex="1">
          <mxGeometry x="896" width="70" height="53" as="geometry" />
        </mxCell>
        <mxCell id="jgzTNgnxc2cYcyluThHS-349" value="" style="shape=partialRectangle;html=1;whiteSpace=wrap;connectable=0;overflow=hidden;fillColor=none;top=0;left=0;bottom=0;right=0;" parent="jgzTNgnxc2cYcyluThHS-342" vertex="1">
          <mxGeometry x="966" width="80" height="53" as="geometry" />
        </mxCell>
        <mxCell id="jgzTNgnxc2cYcyluThHS-350" value="" style="shape=partialRectangle;html=1;whiteSpace=wrap;connectable=0;overflow=hidden;fillColor=none;top=0;left=0;bottom=0;right=0;" parent="jgzTNgnxc2cYcyluThHS-342" vertex="1">
          <mxGeometry x="1046" width="100" height="53" as="geometry" />
        </mxCell>
        <mxCell id="jgzTNgnxc2cYcyluThHS-351" value="" style="shape=partialRectangle;html=1;whiteSpace=wrap;connectable=0;overflow=hidden;fillColor=none;top=0;left=0;bottom=0;right=0;" parent="jgzTNgnxc2cYcyluThHS-342" vertex="1">
          <mxGeometry x="1146" width="100" height="53" as="geometry" />
        </mxCell>
        <mxCell id="jgzTNgnxc2cYcyluThHS-352" value="" style="shape=partialRectangle;html=1;whiteSpace=wrap;connectable=0;overflow=hidden;fillColor=none;top=0;left=0;bottom=0;right=0;" parent="jgzTNgnxc2cYcyluThHS-342" vertex="1">
          <mxGeometry x="1246" width="100" height="53" as="geometry" />
        </mxCell>
        <mxCell id="jgzTNgnxc2cYcyluThHS-353" value="" style="shape=partialRectangle;html=1;whiteSpace=wrap;connectable=0;overflow=hidden;fillColor=none;top=0;left=0;bottom=0;right=0;" parent="jgzTNgnxc2cYcyluThHS-342" vertex="1">
          <mxGeometry x="1346" width="80" height="53" as="geometry" />
        </mxCell>
        <mxCell id="jgzTNgnxc2cYcyluThHS-354" value="" style="shape=partialRectangle;collapsible=0;dropTarget=0;pointerEvents=0;fillColor=none;top=0;left=0;bottom=0;right=0;points=[[0,0.5],[1,0.5]];portConstraint=eastwest;" parent="jgzTNgnxc2cYcyluThHS-317" vertex="1">
          <mxGeometry y="261" width="1426" height="53" as="geometry" />
        </mxCell>
        <mxCell id="jgzTNgnxc2cYcyluThHS-355" value="5" style="shape=partialRectangle;html=1;whiteSpace=wrap;connectable=0;overflow=hidden;fillColor=none;top=0;left=0;bottom=0;right=0;" parent="jgzTNgnxc2cYcyluThHS-354" vertex="1">
          <mxGeometry width="104" height="53" as="geometry" />
        </mxCell>
        <mxCell id="jgzTNgnxc2cYcyluThHS-356" value="" style="shape=partialRectangle;html=1;whiteSpace=wrap;connectable=0;overflow=hidden;fillColor=none;top=0;left=0;bottom=0;right=0;" parent="jgzTNgnxc2cYcyluThHS-354" vertex="1">
          <mxGeometry x="104" width="107" height="53" as="geometry" />
        </mxCell>
        <mxCell id="jgzTNgnxc2cYcyluThHS-357" value="" style="shape=partialRectangle;html=1;whiteSpace=wrap;connectable=0;overflow=hidden;fillColor=none;top=0;left=0;bottom=0;right=0;" parent="jgzTNgnxc2cYcyluThHS-354" vertex="1">
          <mxGeometry x="211" width="104" height="53" as="geometry" />
        </mxCell>
        <mxCell id="S6O9Z_PtVyLRoyKbZGDE-18" style="shape=partialRectangle;html=1;whiteSpace=wrap;connectable=0;overflow=hidden;fillColor=none;top=0;left=0;bottom=0;right=0;" parent="jgzTNgnxc2cYcyluThHS-354" vertex="1">
          <mxGeometry x="315" width="106" height="53" as="geometry" />
        </mxCell>
        <mxCell id="jgzTNgnxc2cYcyluThHS-358" value="" style="shape=partialRectangle;html=1;whiteSpace=wrap;connectable=0;overflow=hidden;fillColor=none;top=0;left=0;bottom=0;right=0;" parent="jgzTNgnxc2cYcyluThHS-354" vertex="1">
          <mxGeometry x="421" width="106" height="53" as="geometry" />
        </mxCell>
        <mxCell id="S6O9Z_PtVyLRoyKbZGDE-25" style="shape=partialRectangle;html=1;whiteSpace=wrap;connectable=0;overflow=hidden;fillColor=none;top=0;left=0;bottom=0;right=0;" parent="jgzTNgnxc2cYcyluThHS-354" vertex="1">
          <mxGeometry x="527" width="175" height="53" as="geometry" />
        </mxCell>
        <mxCell id="jgzTNgnxc2cYcyluThHS-359" value="" style="shape=partialRectangle;html=1;whiteSpace=wrap;connectable=0;overflow=hidden;fillColor=none;top=0;left=0;bottom=0;right=0;" parent="jgzTNgnxc2cYcyluThHS-354" vertex="1">
          <mxGeometry x="702" width="194" height="53" as="geometry" />
        </mxCell>
        <mxCell id="jgzTNgnxc2cYcyluThHS-360" value="" style="shape=partialRectangle;html=1;whiteSpace=wrap;connectable=0;overflow=hidden;fillColor=none;top=0;left=0;bottom=0;right=0;" parent="jgzTNgnxc2cYcyluThHS-354" vertex="1">
          <mxGeometry x="896" width="70" height="53" as="geometry" />
        </mxCell>
        <mxCell id="jgzTNgnxc2cYcyluThHS-361" value="" style="shape=partialRectangle;html=1;whiteSpace=wrap;connectable=0;overflow=hidden;fillColor=none;top=0;left=0;bottom=0;right=0;" parent="jgzTNgnxc2cYcyluThHS-354" vertex="1">
          <mxGeometry x="966" width="80" height="53" as="geometry" />
        </mxCell>
        <mxCell id="jgzTNgnxc2cYcyluThHS-362" value="" style="shape=partialRectangle;html=1;whiteSpace=wrap;connectable=0;overflow=hidden;fillColor=none;top=0;left=0;bottom=0;right=0;" parent="jgzTNgnxc2cYcyluThHS-354" vertex="1">
          <mxGeometry x="1046" width="100" height="53" as="geometry" />
        </mxCell>
        <mxCell id="jgzTNgnxc2cYcyluThHS-363" value="" style="shape=partialRectangle;html=1;whiteSpace=wrap;connectable=0;overflow=hidden;fillColor=none;top=0;left=0;bottom=0;right=0;" parent="jgzTNgnxc2cYcyluThHS-354" vertex="1">
          <mxGeometry x="1146" width="100" height="53" as="geometry" />
        </mxCell>
        <mxCell id="jgzTNgnxc2cYcyluThHS-364" value="" style="shape=partialRectangle;html=1;whiteSpace=wrap;connectable=0;overflow=hidden;fillColor=none;top=0;left=0;bottom=0;right=0;" parent="jgzTNgnxc2cYcyluThHS-354" vertex="1">
          <mxGeometry x="1246" width="100" height="53" as="geometry" />
        </mxCell>
        <mxCell id="jgzTNgnxc2cYcyluThHS-365" value="" style="shape=partialRectangle;html=1;whiteSpace=wrap;connectable=0;overflow=hidden;fillColor=none;top=0;left=0;bottom=0;right=0;" parent="jgzTNgnxc2cYcyluThHS-354" vertex="1">
          <mxGeometry x="1346" width="80" height="53" as="geometry" />
        </mxCell>
        <mxCell id="jgzTNgnxc2cYcyluThHS-366" value="" style="shape=partialRectangle;collapsible=0;dropTarget=0;pointerEvents=0;fillColor=none;top=0;left=0;bottom=0;right=0;points=[[0,0.5],[1,0.5]];portConstraint=eastwest;" parent="jgzTNgnxc2cYcyluThHS-317" vertex="1">
          <mxGeometry y="314" width="1426" height="53" as="geometry" />
        </mxCell>
        <mxCell id="jgzTNgnxc2cYcyluThHS-367" value="6" style="shape=partialRectangle;html=1;whiteSpace=wrap;connectable=0;overflow=hidden;fillColor=none;top=0;left=0;bottom=0;right=0;" parent="jgzTNgnxc2cYcyluThHS-366" vertex="1">
          <mxGeometry width="104" height="53" as="geometry" />
        </mxCell>
        <mxCell id="jgzTNgnxc2cYcyluThHS-368" value="" style="shape=partialRectangle;html=1;whiteSpace=wrap;connectable=0;overflow=hidden;fillColor=none;top=0;left=0;bottom=0;right=0;" parent="jgzTNgnxc2cYcyluThHS-366" vertex="1">
          <mxGeometry x="104" width="107" height="53" as="geometry" />
        </mxCell>
        <mxCell id="jgzTNgnxc2cYcyluThHS-369" value="" style="shape=partialRectangle;html=1;whiteSpace=wrap;connectable=0;overflow=hidden;fillColor=none;top=0;left=0;bottom=0;right=0;" parent="jgzTNgnxc2cYcyluThHS-366" vertex="1">
          <mxGeometry x="211" width="104" height="53" as="geometry" />
        </mxCell>
        <mxCell id="S6O9Z_PtVyLRoyKbZGDE-19" style="shape=partialRectangle;html=1;whiteSpace=wrap;connectable=0;overflow=hidden;fillColor=none;top=0;left=0;bottom=0;right=0;" parent="jgzTNgnxc2cYcyluThHS-366" vertex="1">
          <mxGeometry x="315" width="106" height="53" as="geometry" />
        </mxCell>
        <mxCell id="jgzTNgnxc2cYcyluThHS-370" value="" style="shape=partialRectangle;html=1;whiteSpace=wrap;connectable=0;overflow=hidden;fillColor=none;top=0;left=0;bottom=0;right=0;" parent="jgzTNgnxc2cYcyluThHS-366" vertex="1">
          <mxGeometry x="421" width="106" height="53" as="geometry" />
        </mxCell>
        <mxCell id="S6O9Z_PtVyLRoyKbZGDE-26" style="shape=partialRectangle;html=1;whiteSpace=wrap;connectable=0;overflow=hidden;fillColor=none;top=0;left=0;bottom=0;right=0;" parent="jgzTNgnxc2cYcyluThHS-366" vertex="1">
          <mxGeometry x="527" width="175" height="53" as="geometry" />
        </mxCell>
        <mxCell id="jgzTNgnxc2cYcyluThHS-371" value="" style="shape=partialRectangle;html=1;whiteSpace=wrap;connectable=0;overflow=hidden;fillColor=none;top=0;left=0;bottom=0;right=0;" parent="jgzTNgnxc2cYcyluThHS-366" vertex="1">
          <mxGeometry x="702" width="194" height="53" as="geometry" />
        </mxCell>
        <mxCell id="jgzTNgnxc2cYcyluThHS-372" value="" style="shape=partialRectangle;html=1;whiteSpace=wrap;connectable=0;overflow=hidden;fillColor=none;top=0;left=0;bottom=0;right=0;" parent="jgzTNgnxc2cYcyluThHS-366" vertex="1">
          <mxGeometry x="896" width="70" height="53" as="geometry" />
        </mxCell>
        <mxCell id="jgzTNgnxc2cYcyluThHS-373" value="" style="shape=partialRectangle;html=1;whiteSpace=wrap;connectable=0;overflow=hidden;fillColor=none;top=0;left=0;bottom=0;right=0;" parent="jgzTNgnxc2cYcyluThHS-366" vertex="1">
          <mxGeometry x="966" width="80" height="53" as="geometry" />
        </mxCell>
        <mxCell id="jgzTNgnxc2cYcyluThHS-374" value="" style="shape=partialRectangle;html=1;whiteSpace=wrap;connectable=0;overflow=hidden;fillColor=none;top=0;left=0;bottom=0;right=0;" parent="jgzTNgnxc2cYcyluThHS-366" vertex="1">
          <mxGeometry x="1046" width="100" height="53" as="geometry" />
        </mxCell>
        <mxCell id="jgzTNgnxc2cYcyluThHS-375" value="" style="shape=partialRectangle;html=1;whiteSpace=wrap;connectable=0;overflow=hidden;fillColor=none;top=0;left=0;bottom=0;right=0;" parent="jgzTNgnxc2cYcyluThHS-366" vertex="1">
          <mxGeometry x="1146" width="100" height="53" as="geometry" />
        </mxCell>
        <mxCell id="jgzTNgnxc2cYcyluThHS-376" value="" style="shape=partialRectangle;html=1;whiteSpace=wrap;connectable=0;overflow=hidden;fillColor=none;top=0;left=0;bottom=0;right=0;" parent="jgzTNgnxc2cYcyluThHS-366" vertex="1">
          <mxGeometry x="1246" width="100" height="53" as="geometry" />
        </mxCell>
        <mxCell id="jgzTNgnxc2cYcyluThHS-377" value="" style="shape=partialRectangle;html=1;whiteSpace=wrap;connectable=0;overflow=hidden;fillColor=none;top=0;left=0;bottom=0;right=0;" parent="jgzTNgnxc2cYcyluThHS-366" vertex="1">
          <mxGeometry x="1346" width="80" height="53" as="geometry" />
        </mxCell>
      </root>
    </mxGraphModel>
  </diagram>
</mxfile>
